<svg xmlns="http://www.w3.org/2000/svg" xml:space="preserve" width="512" height="501.31699" viewBox="0 0 135.46667 132.64012"><g style="fill:none"><path fill="#fafafa" d="M31.0235 16.8631H1.28822c-.665792 0-1.2044798.5402-1.2044798 1.206v29.7337c0 .6658.5386878 1.206 1.2044798 1.206H16.1612V35.4599c0-.6642.5371-1.7416 1.2029-2.4104l13.6594-13.6579c.6658-.6673 1.2075-.6673 1.2075 0v-1.3225c0-.6658-.5417-1.206-1.2075-1.206z" style="fill:#f44;fill-opacity:1" transform="matrix(2.01902 0 0 2.01902 -.16907398 -.00001114)"/><path fill="#fafafa" d="m72.99565892 93.4992511 27.58158883-27.58764588c1.33820445-1.34103106 2.43796299-3.52560742 2.43796299-4.86663848V34.0468738H72.99565892c-1.34426149 0-2.43190593 1.09067296-2.43190593 2.43493445V93.4992511c0 1.3442615 1.08764444 1.3442615 2.43190593 0zM62.46789877 39.1519582l-27.5785603 27.57532988c-1.3442615 1.35052044-2.4288774 3.52560742-2.4288774 4.86684039V98.9495874h30.0074377c1.3442615 0 2.43796299-1.08764444 2.43796299-2.43493446V39.1519582c0-1.34729002-1.0937015-1.34729002-2.43796299 0z"/><path fill="#fafafa" d="M36.2378 16.8631h14.8684V.498211c0-.664281-.5447-.664281-1.2075 0L36.2378 14.1621c-.6658.6658-1.2045 1.7432-1.2045 2.4105v1.495c0-.6643.5387-1.2045 1.2045-1.2045z" style="fill:#f44;fill-opacity:1" transform="matrix(2.01902 0 0 2.01902 -.16907398 -.00001114)"/><path d="M36.237743 16.863205c-.665799 0-1.204493.539974-1.204493 1.205774V47.80277c0 .665799.538694 1.206029 1.204493 1.206029h29.736863c.662799 0 1.204493-.53873 1.204493-1.206029V18.068979c0-.6658-.543294-1.205774-1.204493-1.205774H51.107582v13.371773c0 .581174-.418147 1.482168-.966717 2.143312.548283-.661144.965438-1.562138.965438-2.143312V16.863205ZM31.876893 18.891085c-.21865 0-.520432.166986-.853332.500635L17.364103 33.049387c-.6658.6689-1.202958 1.746224-1.202958 2.410523V65.198308c0 .662799.537158.662799 1.202958 0l13.659458-13.66253c.665799-.662799 1.207565-1.743039 1.207565-2.413338v-1.319414c0 .08332-.0087.164634-.02483.243151.0161-.07851.02481-.15983.02483-.243151V19.39172c0-.333649-.135583-.500635-.354233-.500635zm-.178652 29.912187c-.19275.129883-.425005.205527-.67468.205527.249675 0 .48193-.07564.67468-.205527z" style="fill:#fff;fill-opacity:1" transform="matrix(2.01902 0 0 2.01902 -.16907398 -.00001114)"/></g></svg>