<svg xmlns="http://www.w3.org/2000/svg" xml:space="preserve" width="512" height="501.31699" viewBox="0 0 135.46667 132.64012"><g style="fill:none"><path fill="#fafafa" d="M31.0235 16.8631H1.28822c-.665792 0-1.2044798.5402-1.2044798 1.206v29.7337c0 .6658.5386878 1.206 1.2044798 1.206H16.1612V35.4599c0-.6642.5371-1.7416 1.2029-2.4104l13.6594-13.6579c.6658-.6673 1.2075-.6673 1.2075 0v-1.3225c0-.6658-.5417-1.206-1.2075-1.206z" style="fill:#f44;fill-opacity:1" transform="matrix(2.01902 0 0 2.01902 -.16896899 -.00001114)"/><path fill="#fafafa" d="m72.99587366 93.49923895 27.5816302-27.5876423c1.33820645-1.34103089 2.43796664-3.52560696 2.43796664-4.86663785V34.04686938H72.99587366c-1.34426351 0-2.43190958 1.09067282-2.43190958 2.43493414v57.01743543c0 1.34426132 1.08764607 1.34426132 2.43190958 0z"/><path d="M31.876893 18.891085c-.21865 0-.520432.166986-.853332.500635L17.364103 33.049387c-.6658.6689-1.202958 1.746224-1.202958 2.410523V65.198308c0 .662798.537158.662798 1.202958 0l13.659458-13.66253c.665798-.662798 1.207565-1.74304 1.207565-2.413338v-1.319414c0 .08332-.0087.164634-.02483.243151.0161-.07851.02481-.15983.02483-.243151V19.39172c0-.333649-.135583-.500635-.354233-.500635zm.25902 29.381862c-.02745.06473-.06197.125418-.09982.183771.03783-.05831.07238-.119082.09982-.183771zm-.13642.235217c-.03034.04181-.0632.08124-.09854.11876.03528-.03745.06824-.07703.09854-.11876zm-.14026.162527c-.05019.04823-.103075.09356-.160992.132581-.05853.03944-.121649.07201-.186842.100844.06513-.02884.128365-.06144.186842-.100844.05789-.03901.110819-.08439.160992-.132581zm-.399536.253645c-.05106.01983-.10352.03607-.157664.04889.05405-.01281.106681-.02908.157664-.04889zm-.215252.0622c-.07185.0133-.14522.02227-.220884.02227.07568 0 .149023-.0089.220884-.02227z" style="fill:#333;fill-opacity:1" transform="matrix(2.01902 0 0 2.01902 -.16896899 -.00001114)"/><path fill="#fafafa" d="M36.2378 16.8631h14.8684V.498211c0-.664281-.5447-.664281-1.2075 0L36.2378 14.1621c-.6658.6658-1.2045 1.7432-1.2045 2.4105v1.495c0-.6643.5387-1.2045 1.2045-1.2045z" style="fill:#f44;fill-opacity:1" transform="matrix(2.01902 0 0 2.01902 -.16896899 -.00001114)"/><path d="M36.23764 16.863227c-.665799 0-1.204493.539974-1.204493 1.205774v29.733791c0 .665799.538694 1.206029 1.204493 1.206029h29.736863c.662799 0 1.204493-.53873 1.204493-1.206029V18.069001c0-.6658-.543294-1.205774-1.204493-1.205774H51.107479V30.235c0 .581174-.418147 1.482168-.966717 2.143312.548283-.661144.965438-1.562138.965438-2.143312V16.863227Z" style="fill:#333;fill-opacity:1" transform="matrix(2.01902 0 0 2.01902 -.16896899 -.00001114)"/></g></svg>